<svg width="17" height="17" viewBox="0 0 17 17" fill="none" xmlns="http://www.w3.org/2000/svg">
<path d="M16.631 7.7378C16.9657 7.41169 17.0838 6.93308 16.9395 6.48816C16.7948 6.04325 16.418 5.72565 15.955 5.65825L11.8388 5.06015C11.6635 5.03462 11.512 4.92467 11.4337 4.7657L9.59344 1.03584C9.38681 0.616797 8.96743 0.356384 8.50005 0.356384C8.03301 0.356384 7.61363 0.616797 7.407 1.03584L5.56641 4.7657C5.48812 4.92467 5.33629 5.03462 5.16098 5.06015L1.04477 5.65859C0.58215 5.72565 0.205318 6.04325 0.0606441 6.48816C-0.0836891 6.93308 0.0344327 7.41169 0.369054 7.7378L3.34729 10.6408C3.47426 10.7647 3.53247 10.9431 3.50251 11.1174L2.79957 15.2169C2.7206 15.6775 2.90612 16.134 3.28431 16.409C3.66217 16.6844 4.15406 16.7202 4.56833 16.502L8.24951 14.5664C8.40644 14.484 8.59366 14.484 8.75059 14.5664L12.4321 16.502C12.6118 16.5966 12.8066 16.6432 13.0003 16.6432C13.2518 16.6432 13.5024 16.5646 13.7161 16.409C14.0943 16.134 14.2798 15.6775 14.2009 15.2169L13.4976 11.1177C13.4676 10.9431 13.5258 10.7651 13.6528 10.6411L16.631 7.7378ZM12.827 11.2328L13.5299 15.332C13.5653 15.5383 13.4853 15.7354 13.3158 15.8586C13.1459 15.9815 12.9346 15.9965 12.749 15.8998L9.06751 13.9639C8.89016 13.8709 8.69476 13.824 8.50005 13.824C8.30534 13.824 8.11028 13.8709 7.93259 13.9642L4.25175 15.8998C4.06555 15.9965 3.85416 15.9815 3.68463 15.8586C3.51511 15.7354 3.43545 15.5386 3.47052 15.332L4.17346 11.2328C4.2412 10.8372 4.11014 10.4335 3.82284 10.1537L0.844264 7.25034C0.694144 7.10396 0.643083 6.89767 0.708101 6.69854C0.772779 6.49906 0.935154 6.36221 1.14246 6.33192L5.25834 5.73382C5.6556 5.67629 5.99907 5.42711 6.17642 5.06696L8.01701 1.3371C8.1096 1.1492 8.29036 1.0372 8.49971 1.0372C8.7094 1.0372 8.88982 1.1492 8.98275 1.3371L10.8233 5.06696C11.0007 5.42711 11.3438 5.67629 11.7411 5.73382L15.8573 6.33192C16.0646 6.36221 16.227 6.49906 16.2917 6.69854C16.3563 6.89767 16.3056 7.10396 16.1555 7.25034L13.1773 10.1533C12.89 10.4335 12.7589 10.8369 12.827 11.2328Z" fill="black" fill-opacity="0.7"/>
</svg>
