<svg width="22" height="36" viewBox="0 0 22 36" fill="none" xmlns="http://www.w3.org/2000/svg">
<path d="M10.3467 29.9574C10.3635 29.7244 10.4472 29.4581 10.4472 29.1586L10.3467 28.859V28.3598L10.0955 28.21L9.89447 27.9604L9.59297 27.5609L9.19096 27.9604L8.68844 28.3598L8.13568 28.4097L7.63317 28.3598L6.82915 27.7107V27.4611H6.42714L6.12563 27.3113V26.862L6.42714 26.7122V26.4126L6.57789 26.2628H6.9799L7.0804 25.8634H7.43216L7.78392 24.815L8.28643 24.0661L8.33668 23.6667L8.48744 23.2673L8.68844 22.9178L9.1407 22.4684V21.9692L9.0402 21.8693L8.63819 21.5697L7.58291 21.1703L6.82915 20.721L6.27638 20.072V19.0235L6.12563 18.7239L5.37186 18.1248L4.16583 16.5771L3.51256 14.9295L3.11055 13.3319V11.884L3.26131 10.3363L3.51256 9.48752L3.86432 8.73862L4.46734 7.74009L5.57286 6.442L6.8794 5.59324L8.13568 5.14391L10.0452 4.74449H10.4975H10.598V4.39501V4.14537L10.6482 3.74596L10.6985 3.49633L10.799 3.19677L10.8995 2.89721L10.9497 2.6975L11.1005 2.39794L11.201 2.14831L11.3518 1.89868L11.5025 1.7489L11.6533 1.44934L11.7035 1.34949L11.804 1.19971L12.005 1H12.1055L12.1013 1.15809L12.0553 1.24963L12.005 1.29956L11.9045 1.44934L11.8543 1.54919L11.7538 1.69897L11.6533 1.84875L11.603 1.9486L11.5528 1.99853L11.5025 2.09838L11.4523 2.14831L11.402 2.24816L11.3518 2.34802L11.3015 2.4978L11.201 2.64758L11.1508 2.79736L11.1005 3.04699L11.0503 3.29662L11 3.4464L10.9497 3.59618L10.8492 3.94567V4.09545V4.1953V4.44493V4.54479L10.8995 4.76152L11.3518 4.74449H11.7538L11.804 4.49486L11.8543 4.34508L11.9045 4.14537L12.1311 3.74596L12.5578 3.09692L13.8141 1.54919L14.2161 1.14978H14.4171V1.24963L14.1156 1.44934L13.8141 1.7489L13.4121 2.24816L13.1106 2.64758L12.9095 2.89721L12.7588 3.14684L12.5075 3.54626L12.3065 3.84581L12.206 3.99559L12.1558 4.09545L12.1055 4.1953V4.34508L12.0553 4.54479L12.005 4.74449H12.3568H12.4573L12.8593 4.79442L13.4121 4.99413L13.5126 5.04405L13.8643 4.54479L14.2161 4.24523L14.8191 3.74596L15.2211 3.4464L15.4221 3.34655L15.7236 3.14684L15.9246 3.04699L16.2261 2.94714H16.5276L16.4271 3.09692L16.2261 3.19677L16.0251 3.2467L15.8241 3.34655L15.5729 3.54626L15.2714 3.74596L14.9698 3.94567L14.6683 4.1953L14.3668 4.44493L14.0151 4.79442C13.9481 4.87763 13.8141 5.05404 13.8141 5.09398V5.14391L14.4673 5.39354L15.5729 5.94273L16.3769 6.59178L17.9849 8.03965L18.7889 9.28781L19.4925 10.6358L19.794 11.884L19.8945 12.9824L19.794 13.931L19.4925 15.279L19.0069 16.3537L18.2811 17.1883L17.394 18.0343L16.3769 18.7888L15.0201 19.5727V19.9222L15.4221 20.4214L15.3216 21.1703L15.0201 21.5697L14.4673 21.9192L13.5126 22.1689L11.1508 22.069L11.0503 22.1689L10.8995 22.3686L10.7487 22.4185L10.799 22.6182L10.9497 22.6681L11.2513 22.9178V23.417L11.9045 24.8649H12.206H12.7085L12.9598 25.0147L13.4623 25.0646L13.4121 24.5154L13.4623 24.0661C13.7136 23.3671 14.1759 22.8579 14.2161 22.8179C14.2328 22.8013 14.2552 22.7846 14.2812 22.7661L14.4673 22.6182C14.5176 22.5683 14.5678 22.5184 14.6683 22.4684C14.7186 22.4185 14.7186 22.3686 14.7688 22.3686C14.809 22.3686 14.8191 22.3353 14.8191 22.3186L14.9196 22.2687L15.0201 22.2188C15.0369 22.2022 15.0804 22.1689 15.1206 22.1689C15.1709 22.1689 15.1709 22.1689 15.2211 22.1189C15.2613 22.079 15.3049 22.1023 15.3216 22.1189C15.3384 22.1023 15.3819 22.069 15.4221 22.069H15.4724L15.6231 22.0191L15.6734 21.9692L15.7739 21.9192H15.9246H16.0754L16.1759 21.9692V22.1689L16.1256 22.2687L16.0251 22.5184L15.7739 24.0661L15.6734 24.4655L15.5226 24.7651L15.3216 25.0147L15.1206 25.2643L14.9196 25.5139L14.6181 25.6637L14.2161 25.7137L14.3166 25.8135L14.6181 26.3627V27.2115L14.4673 27.6109L14.1156 28.1601L14.2161 28.3598L14.3166 28.6593L14.2161 28.7592L14.0653 29.1586L13.6633 29.4082V29.6079L13.5126 29.8576L13.3116 30.3568V30.7562H14.9196L15.0704 30.7063L16.3266 30.257L17.1809 29.9574L17.6834 29.8576L18.5879 29.7577L19.593 29.8576L20.1457 30.0573L20.5477 30.257L20.8995 30.7063L21 31.3054L20.8995 31.8546L20.7487 32.1043L20.8995 32.7533L20.7487 33.3025L20.5477 33.7518L20.1457 34.1512L19.593 34.5007L19.0905 34.7004L18.4372 34.8502L17.9347 35H17.0302L16.0251 34.8502L14.4673 34.6006L13.3116 34.301L12.4573 33.9515L11.3518 33.3524L11.0503 32.6534H10.9497L10.3467 33.3524L9.59297 33.652L8.78894 33.9515L7.63317 34.4009L7.0804 34.6006L6.22613 34.7004L5.57286 34.9001H4.8191H4.01508L3.46231 34.7504L2.8593 34.4009L2.50754 33.9515L2.25628 33.5022H2.05528L1.40201 33.2026L1 32.6534V31.7048L1.15075 31.3054L1.40201 30.8561L1.85427 30.3568L2.40704 29.8576L3.01005 29.6079H3.46231H4.71859L5.27136 29.7577L6.22613 30.1072L7.88442 30.7063L8.9397 30.8561L9.89447 30.7562L10.2462 30.257L10.3467 29.9574Z" fill="#FFD23F"/>
<path d="M15.4724 22.069L15.6231 22.0191L15.6734 21.9692L15.7739 21.9192H15.9246H16.0754L16.1759 21.9692V22.1689L16.1256 22.2687L16.0251 22.5184L15.7739 24.0661L15.6734 24.4655L15.5226 24.7651L15.3216 25.0147L15.1206 25.2643L14.9196 25.5139L14.6181 25.6637L14.2161 25.7137L14.3166 25.8135L14.6181 26.3627V27.2115L14.4673 27.6109L14.1156 28.1601L14.2161 28.3598L14.3166 28.6593L14.2161 28.7592L14.0653 29.1586L13.6633 29.4082V29.6079L13.5126 29.8576L13.3116 30.3568V30.7562H14.9196L15.0704 30.7063L16.3266 30.257L17.1809 29.9574L17.6834 29.8576L18.5879 29.7577L19.593 29.8576L20.1457 30.0573L20.5477 30.257L20.8995 30.7063L21 31.3054L20.8995 31.8546L20.7487 32.1043L20.8995 32.7533L20.7487 33.3025L20.5477 33.7518L20.1457 34.1512L19.593 34.5007L19.0905 34.7004L18.4372 34.8502L17.9347 35H17.0302L16.0251 34.8502L14.4673 34.6006L13.3116 34.301L12.4573 33.9515L11.3518 33.3524L11.0503 32.6534H10.9497L10.3467 33.3524L9.59296 33.652L8.78894 33.9515L7.63317 34.4009L7.0804 34.6006L6.22613 34.7004L5.57286 34.9001H4.8191H4.01508L3.46231 34.7504L2.8593 34.4009L2.50754 33.9515L2.25628 33.5022H2.05528L1.40201 33.2026L1 32.6534V31.7048L1.15075 31.3054L1.40201 30.8561L1.85427 30.3568L2.40704 29.8576L3.01005 29.6079H3.46231H4.71859L5.27136 29.7577L6.22613 30.1072L7.88442 30.7063L8.9397 30.8561L9.89447 30.7562L10.2462 30.257L10.3467 29.9574C10.3635 29.7244 10.4472 29.4581 10.4472 29.1586L10.3467 28.859V28.3598L10.0955 28.21L9.89447 27.9604L9.59296 27.5609L9.19095 27.9604L8.68844 28.3598L8.13568 28.4097L7.63317 28.3598L6.82915 27.7107V27.4611H6.42714L6.12563 27.3113V26.862L6.42714 26.7122V26.4126L6.57789 26.2628H6.9799L7.0804 25.8634H7.43216L7.78392 24.815L8.28643 24.0661L8.33668 23.6667L8.48744 23.2673L8.68844 22.9178L9.1407 22.4684V21.9692L9.0402 21.8693L8.63819 21.5697L7.58291 21.1703L6.82915 20.721L6.27638 20.072V19.0235L6.12563 18.7239L5.37186 18.1248L4.16583 16.5771L3.51256 14.9295L3.11055 13.3319V11.884L3.26131 10.3363L3.51256 9.48752L3.86432 8.73862L4.46734 7.74009L5.57286 6.442L6.8794 5.59324L8.13568 5.14391L10.0452 4.74449H10.4975H10.598V4.39501V4.14537L10.6482 3.74596L10.6985 3.49633L10.799 3.19677L10.8995 2.89721L10.9497 2.6975L11.1005 2.39794L11.201 2.14831L11.3518 1.89868L11.5025 1.7489L11.6533 1.44934L11.7035 1.34949L11.804 1.19971L12.005 1H12.1055L12.1013 1.15809L12.0553 1.24963L12.005 1.29956L11.9045 1.44934L11.8543 1.54919L11.7538 1.69897L11.6533 1.84875L11.603 1.9486L11.5528 1.99853L11.5025 2.09838L11.4523 2.14831L11.402 2.24816L11.3518 2.34802L11.3015 2.4978L11.201 2.64758L11.1508 2.79736L11.1005 3.04699L11.0503 3.29662L11 3.4464L10.9497 3.59618L10.8492 3.94567C10.8492 3.99559 10.8492 4.04552 10.8492 4.09545C10.8492 4.14537 10.8492 4.09545 10.8492 4.1953C10.8492 4.27518 10.8492 4.41165 10.8492 4.44493C10.8492 4.44493 10.8492 4.50485 10.8492 4.54479L10.8995 4.76152L11.3518 4.74449H11.7538L11.804 4.49486L11.8543 4.34508L11.9045 4.14537L12.1311 3.74596L12.5578 3.09692L13.8141 1.54919L14.2161 1.14978H14.4171V1.24963L14.1156 1.44934L13.8141 1.7489L13.4121 2.24816L13.1106 2.64758L12.9095 2.89721L12.7588 3.14684L12.5075 3.54626L12.3065 3.84581L12.206 3.99559L12.1558 4.09545L12.1055 4.1953V4.34508L12.0553 4.54479L12.005 4.74449H12.3568H12.4573L12.8593 4.79442L13.4121 4.99413L13.5126 5.04405L13.8643 4.54479L14.2161 4.24523L14.8191 3.74596L15.2211 3.4464L15.4221 3.34655L15.7236 3.14684L15.9246 3.04699L16.2261 2.94714H16.5276L16.4271 3.09692L16.2261 3.19677L16.0251 3.2467L15.8241 3.34655L15.5729 3.54626L15.2714 3.74596L14.9698 3.94567L14.6683 4.1953L14.3668 4.44493L14.0151 4.79442C13.9481 4.87763 13.8141 5.05404 13.8141 5.09398V5.14391L14.4673 5.39354L15.5729 5.94273L16.3769 6.59178L17.9849 8.03965L18.7889 9.28781L19.4925 10.6358L19.794 11.884L19.8945 12.9824L19.794 13.931L19.4925 15.279L19.0069 16.3537L18.2811 17.1883L17.394 18.0343L16.3769 18.7888L15.0201 19.5727V19.9222L15.4221 20.4214L15.3216 21.1703L15.0201 21.5697L14.4673 21.9192L13.5126 22.1689L11.1508 22.069L11.0503 22.1689L10.8995 22.3686L10.7487 22.4185L10.799 22.6182L10.9497 22.6681L11.2513 22.9178V23.417L11.9045 24.8649H12.206H12.7085L12.9598 25.0147L13.4623 25.0646L13.4121 24.5154L13.4623 24.0661C13.7136 23.3671 14.1759 22.8579 14.2161 22.8179M15.4724 22.069C15.4724 22.069 15.4623 22.069 15.4221 22.069M15.4724 22.069H15.4221M15.4221 22.069C15.3819 22.069 15.3384 22.1023 15.3216 22.1189C15.3049 22.1023 15.2613 22.079 15.2211 22.1189C15.1709 22.1689 15.1709 22.1689 15.1206 22.1689C15.0804 22.1689 15.0369 22.2022 15.0201 22.2188L14.9196 22.2687L14.8191 22.3186C14.8191 22.3353 14.809 22.3686 14.7688 22.3686C14.7186 22.3686 14.7186 22.4185 14.6683 22.4684C14.5678 22.5184 14.5176 22.5683 14.4673 22.6182M14.4673 22.6182C14.3668 22.7181 14.2663 22.768 14.2161 22.8179M14.4673 22.6182L14.2161 22.8179" stroke="black"/>
</svg>
